<svg width="21" height="22" viewBox="0 0 21 22" fill="none" xmlns="http://www.w3.org/2000/svg">
<path d="M17.8159 16.0942C16.5559 15.0292 15.8334 13.4725 15.8334 11.8233V9.5C15.8334 6.5675 13.655 4.14 10.8334 3.73333V2.83333C10.8334 2.3725 10.46 2 10 2C9.54002 2 9.16669 2.3725 9.16669 2.83333V3.73333C6.34419 4.14 4.16669 6.5675 4.16669 9.5V11.8233C4.16669 13.4725 3.44419 15.0292 2.17669 16.1008C1.85252 16.3783 1.66669 16.7817 1.66669 17.2083C1.66669 18.0125 2.32085 18.6667 3.12502 18.6667H16.875C17.6792 18.6667 18.3334 18.0125 18.3334 17.2083C18.3334 16.7817 18.1475 16.3783 17.8159 16.0942Z" fill="#727288"/>
<path d="M10 22C11.5092 22 12.7717 20.9242 13.0617 19.5H6.93835C7.22835 20.9242 8.49085 22 10 22Z" fill="#727288"/>
<circle cx="16" cy="5" r="4.5" fill="#EF234C" stroke="#191922"/>
</svg>
