<svg id="Capa_1" enable-background="new 0 0 512 512" height="512" viewBox="0 0 512 512" width="512" xmlns="http://www.w3.org/2000/svg" xmlns:xlink="http://www.w3.org/1999/xlink"><linearGradient id="SVGID_1_" gradientUnits="userSpaceOnUse" x1="256" x2="256" y1="512" y2="0"><stop offset="0" stop-color="#a93aff"/><stop offset="1" stop-color="#ff81ff"/></linearGradient><linearGradient id="SVGID_2_" gradientUnits="userSpaceOnUse" x1="256" x2="256" y1="452" y2="301"><stop offset="0" stop-color="#ffbef9"/><stop offset="1" stop-color="#fff1ff"/></linearGradient><g><g><g><path d="m256 0c-140.951 0-256 115.041-256 256v90c0 8.284 6.716 15 15 15s15-6.716 15-15v-90c0-124.617 101.383-226 226-226s226 101.383 226 226v90c0 8.284 6.716 15 15 15s15-6.716 15-15v-90c0-140.952-115.043-256-256-256zm-121 241h-30c-24.813 0-45 20.187-45 45v15l-6 30.5v92.5l6 28v15c0 24.813 20.187 45 45 45h30c24.813 0 45-20.187 45-45v-181c0-24.813-20.187-45-45-45zm317 45c0-24.813-20.187-45-45-45h-30c-24.813 0-45 20.187-45 45v181c0 24.813 20.187 45 45 45h30c24.813 0 45-20.187 45-45v-15l13-27v-93.5l-13-30.5z" fill="url(#SVGID_1_)"/></g></g><g><g><path d="m0 346v61c0 24.813 20.187 45 45 45h15v-151h-15c-24.813 0-45 20.187-45 45zm467-45h-15v151h15c24.813 0 45-20.187 45-45v-61c0-24.813-20.187-45-45-45z" fill="url(#SVGID_2_)"/></g></g></g></svg>