<svg width="18" height="17" viewBox="0 0 18 17" fill="none" xmlns="http://www.w3.org/2000/svg">
<path d="M9 0.5C4.5816 0.5 1 4.0816 1 8.5C1 12.9184 4.5816 16.5 9 16.5C13.4184 16.5 17 12.9184 17 8.5C17 4.0816 13.4184 0.5 9 0.5Z" stroke="white" stroke-linecap="round" stroke-linejoin="round"/>
<path d="M2.81683 13.5768C2.81683 13.5768 4.60003 11.3 9.00003 11.3C13.4 11.3 15.184 13.5768 15.184 13.5768M9.00003 8.49995C9.63655 8.49995 10.247 8.2471 10.6971 7.79701C11.1472 7.34692 11.4 6.73647 11.4 6.09995C11.4 5.46343 11.1472 4.85298 10.6971 4.40289C10.247 3.95281 9.63655 3.69995 9.00003 3.69995C8.36351 3.69995 7.75306 3.95281 7.30298 4.40289C6.85289 4.85298 6.60003 5.46343 6.60003 6.09995C6.60003 6.73647 6.85289 7.34692 7.30298 7.79701C7.75306 8.2471 8.36351 8.49995 9.00003 8.49995V8.49995Z" stroke="white" stroke-linecap="round" stroke-linejoin="round"/>
</svg>
