<svg width="18" height="20" viewBox="0 0 18 20" fill="none" xmlns="http://www.w3.org/2000/svg">
<path d="M16.8159 14.0942C15.5559 13.0292 14.8334 11.4725 14.8334 9.82333V7.5C14.8334 4.5675 12.655 2.14 9.83335 1.73333V0.833333C9.83335 0.3725 9.46002 0 9.00002 0C8.54002 0 8.16669 0.3725 8.16669 0.833333V1.73333C5.34419 2.14 3.16669 4.5675 3.16669 7.5V9.82333C3.16669 11.4725 2.44419 13.0292 1.17669 14.1008C0.85252 14.3783 0.666687 14.7817 0.666687 15.2083C0.666687 16.0125 1.32085 16.6667 2.12502 16.6667H15.875C16.6792 16.6667 17.3334 16.0125 17.3334 15.2083C17.3334 14.7817 17.1475 14.3783 16.8159 14.0942Z" fill="#727288"/>
<path d="M9.00002 20C10.5092 20 11.7717 18.9242 12.0617 17.5H5.93835C6.22835 18.9242 7.49085 20 9.00002 20Z" fill="#727288"/>
</svg>
