<svg width="25" height="25" viewBox="0 0 25 25" fill="none" xmlns="http://www.w3.org/2000/svg">
<g clip-path="url(#clip0_341_72)">
<path d="M24.5014 11.5373C22.8933 10.9598 21.9043 9.32335 22.0285 8.03112C22.0285 7.81867 21.9012 7.62126 21.7403 7.48181C21.5794 7.34304 21.3298 7.28298 21.1209 7.31658C18.6704 7.6761 16.4265 5.88338 16.2042 3.36337C16.1842 3.13593 16.0598 2.93134 15.8666 2.80902C15.6743 2.68744 15.4346 2.66098 15.2222 2.74037C13.2359 3.46776 11.3591 2.15253 10.6103 0.43877C10.4701 0.118312 10.1225 -0.058347 9.77984 0.0174828C4.14154 1.27563 0 6.72151 0 12.5001C0 19.3657 5.63426 25 12.5 25C19.3656 25 24.9999 19.3657 24.9999 12.5001C24.9795 12.0638 24.9765 11.7075 24.5014 11.5373ZM5.13914 13.2876C4.73465 13.2876 4.40672 12.9597 4.40672 12.5552C4.40672 12.1506 4.73465 11.8228 5.13914 11.8228C5.54363 11.8228 5.87156 12.1506 5.87156 12.5552C5.87156 12.9597 5.54358 13.2876 5.13914 13.2876ZM8.10544 19.0918C6.89382 19.0918 5.90818 18.1062 5.90818 16.8946C5.90818 15.6829 6.89382 14.6973 8.10544 14.6973C9.31705 14.6973 10.3027 15.6829 10.3027 16.8946C10.3027 18.1062 9.3171 19.0918 8.10544 19.0918ZM8.83786 10.3028C8.03034 10.3028 7.37302 9.64547 7.37302 8.83796C7.37302 8.03044 8.03034 7.37312 8.83786 7.37312C9.64537 7.37312 10.3027 8.03044 10.3027 8.83796C10.3027 9.64547 9.64537 10.3028 8.83786 10.3028ZM14.6972 20.5567C13.8897 20.5567 13.2324 19.8993 13.2324 19.0918C13.2324 18.2843 13.8897 17.627 14.6972 17.627C15.5047 17.627 16.162 18.2843 16.162 19.0918C16.162 19.8993 15.5047 20.5567 14.6972 20.5567ZM15.4296 14.6973C14.218 14.6973 13.2324 13.7117 13.2324 12.5001C13.2324 11.2884 14.218 10.3028 15.4296 10.3028C16.6412 10.3028 17.6269 11.2884 17.6269 12.5001C17.6269 13.7117 16.6413 14.6973 15.4296 14.6973ZM19.7875 16.2173C19.383 16.2173 19.0551 15.8893 19.0551 15.4849C19.0551 15.0803 19.383 14.7524 19.7875 14.7524C20.192 14.7524 20.5199 15.0803 20.5199 15.4849C20.5199 15.8893 20.192 16.2173 19.7875 16.2173Z" fill="white"/>
</g>
<defs>
<clipPath id="clip0_341_72">
<rect width="25" height="25" fill="white"/>
</clipPath>
</defs>
</svg>
