<svg width="16" height="16" viewBox="0 0 16 16" fill="none" xmlns="http://www.w3.org/2000/svg">
<path d="M11.2727 2.98291L13.0169 4.72632M12.3943 1.44703L7.678 6.16338C7.43431 6.40673 7.26811 6.71677 7.20036 7.05443L6.76471 9.23513L8.94541 8.79866C9.28306 8.73114 9.5927 8.56561 9.83647 8.32184L14.5528 3.6055C14.6945 3.46377 14.807 3.29552 14.8837 3.11034C14.9604 2.92517 14.9998 2.7267 14.9998 2.52627C14.9998 2.32583 14.9604 2.12736 14.8837 1.94219C14.807 1.75701 14.6945 1.58876 14.5528 1.44703C14.4111 1.30531 14.2428 1.19288 14.0577 1.11618C13.8725 1.03948 13.674 1 13.4736 1C13.2731 1 13.0747 1.03948 12.8895 1.11618C12.7043 1.19288 12.5361 1.30531 12.3943 1.44703V1.44703Z" stroke="white" stroke-linecap="round" stroke-linejoin="round"/>
<path d="M13.3529 10.8822V13.3528C13.3529 13.7897 13.1794 14.2086 12.8705 14.5175C12.5616 14.8264 12.1427 14.9999 11.7059 14.9999H2.64706C2.21023 14.9999 1.79129 14.8264 1.48241 14.5175C1.17353 14.2086 1 13.7897 1 13.3528V4.29403C1 3.8572 1.17353 3.43827 1.48241 3.12938C1.79129 2.8205 2.21023 2.64697 2.64706 2.64697H5.11764" stroke="white" stroke-linecap="round" stroke-linejoin="round"/>
</svg>
