<svg width="25" height="25" viewBox="0 0 25 25" fill="none" xmlns="http://www.w3.org/2000/svg">
<g clip-path="url(#clip0_341_33)">
<path d="M24.9346 9.58896C24.77 9.08274 24.321 8.72434 23.7919 8.67647L16.5752 8.02128L13.723 1.34392C13.5125 0.853345 13.0333 0.53672 12.5 0.53672C11.9667 0.53672 11.4874 0.853345 11.2782 1.34392L8.42606 8.02128L1.20815 8.67647C0.679043 8.7253 0.230999 9.08369 0.0654383 9.58896C-0.0991687 10.0952 0.0528495 10.6504 0.453018 11.0014L5.90832 15.7849L4.29982 22.8693C4.18214 23.3902 4.38432 23.9288 4.81653 24.2413C5.04885 24.4101 5.3218 24.4944 5.5957 24.4944C5.83107 24.4944 6.06663 24.4318 6.27701 24.3059L12.5 20.585L18.7219 24.3059C19.1783 24.5787 19.7523 24.5537 20.1835 24.2413C20.6157 23.9288 20.8179 23.3902 20.7002 22.8693L19.0918 15.7849L24.5471 11.0014C24.947 10.6504 25.0992 10.0963 24.9346 9.58896V9.58896Z" fill="white"/>
</g>
<defs>
<clipPath id="clip0_341_33">
<rect width="25" height="25" fill="white"/>
</clipPath>
</defs>
</svg>
