<svg width="25" height="22" viewBox="0 0 25 22" fill="none" xmlns="http://www.w3.org/2000/svg">
<path d="M12.5 21.6217C12.3735 21.6217 12.2471 21.589 12.1338 21.5236C12.0108 21.4526 9.0874 19.7552 6.12208 17.1977C4.36456 15.6819 2.96164 14.1785 1.95237 12.7293C0.646315 10.854 -0.0104695 9.05021 0.000126176 7.36794C0.0125285 5.41043 0.713649 3.56952 1.97448 2.18427C3.25661 0.775681 4.96764 0 6.79249 0C9.1312 0 11.2694 1.31005 12.5 3.38534C13.7306 1.3101 15.8689 0 18.2076 0C19.9316 0 21.5765 0.6999 22.8394 1.97079C24.2253 3.36547 25.0127 5.33607 24.9998 7.37722C24.9892 9.05656 24.3201 10.8576 23.0112 12.7303C21.9988 14.1788 20.5978 15.6815 18.8472 17.1969C15.8927 19.7541 12.9903 21.4514 12.8682 21.5224C12.7544 21.5886 12.6271 21.6217 12.5 21.6217V21.6217Z" fill="white"/>
</svg>
