<svg width="39" height="39" viewBox="0 0 39 39" fill="none" xmlns="http://www.w3.org/2000/svg">
<path d="M22.3954 39.0003C20.9398 39.0003 19.6152 38.3141 18.7478 37.1064C18.1911 36.3313 17.8968 35.4169 17.8968 34.4627V4.4126C17.8968 4.25519 17.8605 4.0969 17.7912 3.95497L17.7385 3.84696C17.2803 2.90671 16.3922 3.03049 16.1306 3.0906C15.8661 3.1516 15.0029 3.43426 15.0029 4.50513V26.8916C15.0029 28.7281 13.9038 30.3616 12.203 31.0534C10.5022 31.7455 8.57442 31.3429 7.29259 30.0281C6.46958 29.1839 6.01642 28.0699 6.01642 26.8913V13.3033C6.01642 12.3797 5.31153 12.0185 5.09551 11.9295C4.87919 11.8408 4.12372 11.6025 3.47478 12.2598C3.19836 12.5398 3.04631 12.9102 3.04631 13.3033V24.5306C3.04631 25.3718 2.36433 26.0537 1.52317 26.0537C0.682007 26.0537 3.05176e-05 25.3718 3.05176e-05 24.5306V13.3033C3.05176e-05 12.1039 0.464203 10.9732 1.30715 10.1195C2.62379 8.78623 4.51887 8.39972 6.25237 9.11174C7.98587 9.82318 9.06269 11.4296 9.06269 13.3033V26.8913C9.06269 27.271 9.20879 27.6298 9.47361 27.9015C10.1044 28.5484 10.8435 28.3178 11.0554 28.2318C11.2666 28.1458 11.9566 27.795 11.9566 26.8919V4.50513C11.9566 2.36548 13.3587 0.604004 15.4457 0.122574C17.5243 -0.35707 19.5461 0.603112 20.4769 2.51217L20.5295 2.62048C20.8 3.1757 20.9431 3.79549 20.9431 4.41289L20.9428 34.463C20.9428 34.7757 21.0395 35.0753 21.2219 35.3294C21.6025 35.8594 22.0896 35.9614 22.4317 35.9537C23.15 35.9373 23.9132 35.4095 23.9132 34.4633V32.2986C23.9132 31.4572 24.5952 30.7755 25.4364 30.7755C26.2775 30.7755 26.9595 31.4572 26.9595 32.2986V34.4633C26.9595 37.2391 24.6925 38.9494 22.5008 38.9991C22.4657 39 22.4306 39.0003 22.3954 39.0003ZM34.5002 31.3846C36.1873 31.3831 37.6715 30.4768 38.4704 28.9602C38.8117 28.3115 38.9923 27.5813 38.9923 26.8485V16.0008C38.9923 15.1597 38.3103 14.4777 37.4691 14.4777C36.628 14.4777 35.946 15.1597 35.946 16.0008V26.8485C35.946 27.0889 35.8868 27.3281 35.7749 27.5406C35.428 28.1993 34.8888 28.338 34.4978 28.3383C34.4972 28.3383 34.4969 28.3383 34.4964 28.3383C34.0988 28.3383 33.7088 28.1913 33.4261 27.9348C33.1273 27.6635 32.9759 27.2981 32.9759 26.8485V13.3024C32.9759 11.6254 32.0987 10.1416 30.63 9.33282C29.1611 8.52409 27.4383 8.57646 26.021 9.47326C24.7011 10.3088 23.9132 11.7403 23.9132 13.3021V24.6826C23.9132 25.5241 24.5952 26.2058 25.4364 26.2058C26.2775 26.2058 26.9595 25.5241 26.9595 24.6826V13.3024C26.9595 12.7903 27.2178 12.3214 27.6504 12.0473C28.3196 11.6239 28.9296 11.8742 29.1608 12.0015C29.3919 12.1286 29.9296 12.5103 29.9296 13.3024V26.8485C29.9296 28.1556 30.4444 29.3425 31.379 30.1905C32.2154 30.9496 33.3511 31.3846 34.4964 31.3846H34.5002Z" fill="url(#paint0_linear_17_471)"/>
<defs>
<linearGradient id="paint0_linear_17_471" x1="5.37356e-05" y1="19.5003" x2="38.9923" y2="19.5003" gradientUnits="userSpaceOnUse">
<stop stop-color="#00F2FE"/>
<stop offset="0.0208" stop-color="#03EFFE"/>
<stop offset="0.2931" stop-color="#24D2FE"/>
<stop offset="0.5538" stop-color="#3CBDFE"/>
<stop offset="0.7956" stop-color="#4AB0FE"/>
<stop offset="1" stop-color="#4FACFE"/>
</linearGradient>
</defs>
</svg>
