<svg width="25" height="25" viewBox="0 0 25 25" fill="none" xmlns="http://www.w3.org/2000/svg">
<g clip-path="url(#clip0_341_6)">
<path d="M24.0666 5.93608L13.7639 8.86577C13.4491 8.95591 13.2324 9.24346 13.2324 9.57031C13.2324 13.2066 13.2324 15.8534 13.2324 19.548C12.7998 19.2958 12.3036 19.1406 11.7676 19.1406C10.1518 19.1406 8.83789 20.4545 8.83789 22.0703C8.83789 23.6861 10.1518 25 11.7676 25C13.3833 25 14.6973 23.6861 14.6973 22.0703V14.5176L23.5352 12.0064V16.6184C23.1025 16.3661 22.6063 16.2109 22.0703 16.2109C20.4545 16.2109 19.1406 17.5249 19.1406 19.1406C19.1406 20.7564 20.4545 22.0703 22.0703 22.0703C23.6861 22.0703 25 20.7564 25 19.1406C25 14.4854 25 11.2851 25 6.64062C25 6.1562 24.5366 5.80332 24.0666 5.93608Z" fill="white"/>
<path d="M8.47671 4.52417C7.04189 3.6437 5.85938 2.89893 5.85938 0.732422C5.85938 0.327588 5.53179 0 5.12695 0C4.72212 0 4.39453 0.327588 4.39453 0.732422C4.39453 5.28071 4.39453 2.27515 4.39453 13.6398C3.96191 13.3875 3.46567 13.2324 2.92969 13.2324C1.31392 13.2324 0 14.5463 0 16.1621C0 17.7779 1.31392 19.0918 2.92969 19.0918C4.54546 19.0918 5.85938 17.7779 5.85938 16.1621C5.85938 13.6376 5.85938 11.9675 5.85938 9.17246C6.33857 9.5563 6.92852 9.87207 7.44526 10.1719C8.97881 11.0609 10.3027 11.8291 10.3027 13.9648C10.3027 14.3697 10.6303 14.6973 11.0352 14.6973C11.44 14.6973 11.7676 14.3697 11.7676 13.9648V9.57031C11.7676 6.54263 10.0195 5.47046 8.47671 4.52417Z" fill="white"/>
</g>
<defs>
<clipPath id="clip0_341_6">
<rect width="25" height="25" fill="white"/>
</clipPath>
</defs>
</svg>
