<svg width="20" height="20" viewBox="0 0 20 20" fill="none" xmlns="http://www.w3.org/2000/svg">
<path d="M8.75 3.125V16.875C8.75 17.3723 8.55246 17.8492 8.20083 18.2008C7.84919 18.5525 7.37228 18.75 6.875 18.75H5C4.50272 18.75 4.02581 18.5525 3.67417 18.2008C3.32254 17.8492 3.125 17.3723 3.125 16.875V3.125C3.125 2.62772 3.32254 2.15081 3.67417 1.79917C4.02581 1.44754 4.50272 1.25 5 1.25H6.875C7.37228 1.25 7.84919 1.44754 8.20083 1.79917C8.55246 2.15081 8.75 2.62772 8.75 3.125V3.125ZM15 1.25H13.125C12.6277 1.25 12.1508 1.44754 11.7992 1.79917C11.4475 2.15081 11.25 2.62772 11.25 3.125V16.875C11.25 17.3723 11.4475 17.8492 11.7992 18.2008C12.1508 18.5525 12.6277 18.75 13.125 18.75H15C15.4973 18.75 15.9742 18.5525 16.3258 18.2008C16.6775 17.8492 16.875 17.3723 16.875 16.875V3.125C16.875 2.62772 16.6775 2.15081 16.3258 1.79917C15.9742 1.44754 15.4973 1.25 15 1.25Z" fill="white"/>
</svg>
