<svg width="25" height="25" viewBox="0 0 25 25" fill="none" xmlns="http://www.w3.org/2000/svg">
<g clip-path="url(#clip0_341_29)">
<path d="M12.7082 2.31295e-09H12.8316C13.4408 -1.92347e-05 14.044 0.119958 14.6069 0.353082C15.1697 0.586205 15.6812 0.92791 16.1119 1.35868C16.5427 1.78946 16.8844 2.30087 17.1176 2.86371C17.3507 3.42655 17.4707 4.0298 17.4707 4.63901V12.2318H8.06921V4.63901C8.06921 3.40867 8.55797 2.22872 9.42795 1.35874C10.2979 0.488752 11.4779 2.31296e-09 12.7082 2.31295e-09V2.31295e-09Z" fill="white"/>
<path d="M8.06921 13.0886H17.4707V14.5599C17.4707 15.7902 16.982 16.9702 16.112 17.8401C15.242 18.7101 14.0621 19.1989 12.8317 19.1989H12.7084C11.478 19.1989 10.2981 18.7101 9.4281 17.8401C8.55811 16.9702 8.06936 15.7902 8.06936 14.5599V13.0886H8.06921V13.0886Z" fill="white"/>
<path d="M19.0643 11.7055C18.8377 11.7055 18.6203 11.7955 18.4601 11.9558C18.2998 12.116 18.2098 12.3334 18.2098 12.56V14.4474C18.2055 15.8873 17.6304 17.2668 16.6107 18.2835C15.591 19.3002 14.2098 19.8711 12.7699 19.8711C11.3299 19.8711 9.94873 19.3002 8.92902 18.2835C7.90931 17.2668 7.33427 15.8873 7.32996 14.4474V12.56C7.32996 12.3334 7.23993 12.116 7.07968 11.9558C6.91943 11.7955 6.70209 11.7055 6.47546 11.7055C6.24884 11.7055 6.0315 11.7955 5.87125 11.9558C5.711 12.116 5.62097 12.3334 5.62097 12.56V14.4474C5.62097 18.1002 8.37488 21.1214 11.9154 21.5451V23.2173H8.72556C8.49894 23.2173 8.28159 23.3074 8.12134 23.4676C7.9611 23.6279 7.87107 23.8452 7.87107 24.0718C7.87107 24.2985 7.9611 24.5158 8.12134 24.676C8.28159 24.8363 8.49894 24.9263 8.72556 24.9263H16.8143C17.041 24.9263 17.2583 24.8363 17.4185 24.676C17.5788 24.5158 17.6688 24.2985 17.6688 24.0718C17.6688 23.8452 17.5788 23.6279 17.4185 23.4676C17.2583 23.3074 17.041 23.2173 16.8143 23.2173H13.6243V21.5451C17.1649 21.1214 19.9188 18.1002 19.9188 14.4474V12.56C19.9188 12.3334 19.8287 12.116 19.6685 11.9558C19.5083 11.7955 19.2909 11.7055 19.0643 11.7055V11.7055Z" fill="white"/>
</g>
<defs>
<clipPath id="clip0_341_29">
<rect width="25" height="25" fill="white"/>
</clipPath>
</defs>
</svg>
