<svg width="25" height="25" viewBox="0 0 25 25" fill="none" xmlns="http://www.w3.org/2000/svg">
<g clip-path="url(#clip0_341_35)">
<path d="M23.324 6.22547C22.2061 4.31045 20.6899 2.7942 18.7748 1.67644C16.8594 0.558738 14.7684 0 12.5004 0C10.2325 0 8.14095 0.558738 6.22587 1.67644C4.31068 2.79403 2.79443 4.31028 1.67661 6.22547C0.558738 8.14078 0 10.2324 0 12.5C0 14.7678 0.558909 16.8591 1.67644 18.7745C2.7942 20.6895 4.31045 22.2057 6.22564 23.3236C8.14095 24.4413 10.2324 25.0001 12.5001 25.0001C14.7679 25.0001 16.8596 24.4413 18.7748 23.3236C20.6898 22.2061 22.206 20.6895 23.3237 18.7745C24.4413 16.8592 24.9999 14.7677 24.9999 12.5C25 10.2321 24.4413 8.14049 23.324 6.22547ZM14.5839 20.3126C14.5839 20.4643 14.5347 20.5892 14.4372 20.6867C14.34 20.7842 14.2151 20.833 14.0634 20.833H10.938C10.7861 20.833 10.6613 20.7842 10.5636 20.6867C10.4659 20.5892 10.4171 20.4643 10.4171 20.3126V17.1872C10.4171 17.0354 10.4659 16.9105 10.5636 16.813C10.6613 16.7157 10.7861 16.6669 10.938 16.6669H14.0634C14.2151 16.6669 14.34 16.7157 14.4372 16.813C14.5347 16.9106 14.5839 17.0354 14.5839 17.1872V20.3126ZM18.547 10.6933C18.4112 11.0948 18.2594 11.4232 18.0912 11.6781C17.9231 11.9331 17.6815 12.1936 17.3667 12.4593C17.0526 12.7251 16.8028 12.9151 16.6179 13.0292C16.4338 13.143 16.1677 13.2979 15.8208 13.493C15.4626 13.699 15.1672 13.9676 14.9341 14.2988C14.7007 14.6296 14.5841 14.8981 14.5841 15.1041C14.5841 15.2563 14.5349 15.3811 14.4373 15.4787C14.34 15.5762 14.2152 15.6249 14.0634 15.6249H10.9382C10.7863 15.6249 10.6615 15.5762 10.5638 15.4787C10.466 15.3811 10.4174 15.2563 10.4174 15.1041V14.5181C10.4174 13.7911 10.702 13.1099 11.2718 12.4753C11.8415 11.8405 12.4682 11.3712 13.1519 11.0674C13.6723 10.8287 14.0414 10.5845 14.2584 10.335C14.4757 10.0854 14.5842 9.75417 14.5842 9.34206C14.5842 8.98387 14.3806 8.66383 13.9736 8.38152C13.5666 8.0995 13.1031 7.95847 12.5821 7.95847C12.0177 7.95847 11.5512 8.08873 11.1822 8.34926C10.824 8.6095 10.3576 9.10872 9.78245 9.84647C9.68479 9.97679 9.54911 10.0421 9.37546 10.0421C9.24526 10.0421 9.14213 10.0096 9.06625 9.94463L6.91795 8.31693C6.66843 8.12157 6.62504 7.89382 6.78763 7.63335C8.17669 5.32212 10.1894 4.16651 12.8261 4.16651C13.7703 4.16651 14.6927 4.38901 15.5933 4.83396C16.4938 5.27868 17.2453 5.90811 17.8477 6.72201C18.4494 7.53564 18.751 8.42012 18.751 9.37501C18.7502 9.85239 18.6822 10.2916 18.547 10.6933Z" fill="white"/>
</g>
<defs>
<clipPath id="clip0_341_35">
<rect width="25" height="25" fill="white"/>
</clipPath>
</defs>
</svg>
