<svg width="16" height="13" viewBox="0 0 16 13" fill="none" xmlns="http://www.w3.org/2000/svg">
<path d="M10.1538 3.80779V2.46163C10.1538 2.10461 10.012 1.76221 9.75957 1.50976C9.50711 1.25731 9.16471 1.11548 8.80769 1.11548H2.34615C1.98913 1.11548 1.64673 1.25731 1.39428 1.50976C1.14183 1.76221 1 2.10461 1 2.46163V10.5386C1 10.8956 1.14183 11.238 1.39428 11.4904C1.64673 11.7429 1.98913 11.8847 2.34615 11.8847H8.80769C9.16471 11.8847 9.50711 11.7429 9.75957 11.4904C10.012 11.238 10.1538 10.8956 10.1538 10.5386V9.1924M12.3077 3.80779L15 6.50009L12.3077 9.1924M5.8125 6.50009H15" stroke="white" stroke-linecap="round" stroke-linejoin="round"/>
</svg>
